<svg width="16" height="16" fill="none" xmlns="http://www.w3.org/2000/svg"><path d="M4.266 7.748v6.688l.004-6.688h-.004zm8.409-1.38H7.762l.15-3.1a.555.555 0 00-.557-.58.692.692 0 00-.66.504L5.391 7.92v5.394h6.24a.888.888 0 00.417-1.236l-.217-.397.342-.297a.885.885 0 00.307-.672.879.879 0 00-.108-.427l-.217-.396.342-.297a.886.886 0 00.306-.672.878.878 0 00-.108-.427l-.218-.398.342-.297a.886.886 0 00.306-.672.904.904 0 00-.45-.756z" fill="#E6F7FF"/><path d="M1.75 8.25v5.688a.5.5 0 00.5.5h1.016V7.75H2.25a.5.5 0 00-.5.5zm12.092.09a2.01 2.01 0 00.408-1.215c0-.702-.392-1.367-1.023-1.734a1.058 1.058 0 00-.536-.146H8.942l.094-1.92a1.66 1.66 0 00-.461-1.24 1.663 1.663 0 00-1.217-.522c-.813 0-1.531.546-1.747 1.33L4.27 7.747l-.005 6.688h7.376c.146 0 .285-.028.414-.084a2.009 2.009 0 001.14-2.428 2.01 2.01 0 00.323-1.793 2.011 2.011 0 00.323-1.792zm-1.023-.543l-.342.297.218.398a.887.887 0 01-.198 1.098l-.342.298.217.396a.887.887 0 01-.198 1.098l-.343.298.217.397a.888.888 0 01-.417 1.236h-6.24V7.918l1.304-4.727a.692.692 0 01.66-.504.555.555 0 01.558.581l-.15 3.1h4.912c.278.17.45.458.45.756 0 .258-.11.503-.306.672z" fill="#1890FF"/></svg>