<svg width="24" height="24" fill="none" xmlns="http://www.w3.org/2000/svg"><path d="M12 1.5C6.202 1.5 1.5 6.202 1.5 12S6.202 22.5 12 22.5 22.5 17.798 22.5 12 17.798 1.5 12 1.5zm0 19.219A8.72 8.72 0 013.281 12 8.72 8.72 0 0112 3.281 8.72 8.72 0 0120.719 12 8.72 8.72 0 0112 20.719z" fill="#1890FF"/><path d="M12 3.281A8.72 8.72 0 003.281 12 8.72 8.72 0 0012 20.719 8.72 8.72 0 0020.719 12 8.72 8.72 0 0012 3.281zM6.75 9.867a1.125 1.125 0 012.25 0 1.125 1.125 0 01-2.25 0zM12 16.242a3.759 3.759 0 01-3.75-3.553.188.188 0 01.188-.197h1.127a.19.19 0 01.19.174 2.252 2.252 0 004.49 0 .19.19 0 01.19-.174h1.127a.188.188 0 01.188.197A3.759 3.759 0 0112 16.242zm4.125-5.25a1.125 1.125 0 010-2.25 1.125 1.125 0 010 2.25z" fill="#E6F7FF"/><path d="M6.75 9.867a1.125 1.125 0 102.25 0 1.125 1.125 0 00-2.25 0zm8.813 2.625h-1.128a.19.19 0 00-.19.174 2.252 2.252 0 01-4.49 0 .19.19 0 00-.19-.174H8.438a.188.188 0 00-.188.197A3.759 3.759 0 0012 16.242a3.759 3.759 0 003.75-3.553.187.187 0 00-.188-.197zM15 9.867a1.125 1.125 0 102.25 0 1.125 1.125 0 00-2.25 0z" fill="#1890FF"/></svg>